<?xml version="1.0" standalone="no"?><!DOCTYPE svg PUBLIC "-//W3C//DTD SVG 1.1//EN" "http://www.w3.org/Graphics/SVG/1.1/DTD/svg11.dtd"><svg t="1554969974079" class="icon" style="" viewBox="0 0 1024 1024" version="1.1" xmlns="http://www.w3.org/2000/svg" p-id="2760" xmlns:xlink="http://www.w3.org/1999/xlink" width="64" height="64"><defs><style type="text/css"></style></defs><path d="M0 512.095982a511.904018 511.904018 0 1 1 511.904018 511.904018 511.904018 511.904018 0 0 1-511.904018-511.904018z m127.976004 0a383.928013 383.928013 0 1 0 383.928014-383.928013 384.311942 384.311942 0 0 0-383.928014 383.928013z m319.940012 223.958008v-159.970006H287.94601a63.988002 63.988002 0 1 1 0-127.976004H447.916016v-159.970006a63.988002 63.988002 0 0 1 127.976004 0v159.970006h159.970006a63.988002 63.988002 0 0 1 0 127.976004H575.89202v159.970006a63.988002 63.988002 0 1 1-127.976004 0z" fill="#8F9BB3" p-id="2761"></path></svg>