<?xml version="1.0" standalone="no"?><!DOCTYPE svg PUBLIC "-//W3C//DTD SVG 1.1//EN" "http://www.w3.org/Graphics/SVG/1.1/DTD/svg11.dtd"><svg t="1557371689531" class="icon" style="" viewBox="0 0 1024 1024" version="1.1" xmlns="http://www.w3.org/2000/svg" p-id="4984" xmlns:xlink="http://www.w3.org/1999/xlink" width="64" height="64"><defs><style type="text/css"></style></defs><path d="M790.864 318.096c0.72 8.832 1.136 17.808 1.136 26.896v444.16c0 73.04-35.824 138.8-112 138.8h-336c-76.176 0-112-65.776-112-138.8v-444.16a235.104 235.104 0 0 1 1.68-26.896H176v-111.04l168-0.128V185.6c0-49.472 45.84-89.6 102.4-89.6h131.2c56.56 0 102.4 40.112 102.4 89.6v20.592l168 0.736v111.168h-57.136zM624 185.6c0-18.464-21.248-34.064-46.4-34.064h-131.2c-25.152 0-46.4 15.6-46.4 34.064v21.344h224V185.6z m112 159.408a190.4 190.4 0 0 0-1.872-26.896H289.888a188.544 188.544 0 0 0-1.888 26.88v444.16c0 42.592 10.72 83.28 56 83.28h336c45.344 0 56-40.704 56-83.28v-444.16z m-112 28.336h56v443.728H624V373.328z m-140 0h56v443.728h-56V373.328z m-140 0H400v443.728h-56V373.328z" p-id="4985" fill="#ffffff"></path></svg>