<?xml version="1.0" standalone="no"?><!DOCTYPE svg PUBLIC "-//W3C//DTD SVG 1.1//EN" "http://www.w3.org/Graphics/SVG/1.1/DTD/svg11.dtd"><svg t="1554795563187" class="icon" style="" viewBox="0 0 1024 1024" version="1.1" xmlns="http://www.w3.org/2000/svg" p-id="3259" xmlns:xlink="http://www.w3.org/1999/xlink" width="64" height="64"><defs><style type="text/css"></style></defs><path d="M511.3 923.4c-107.5 0-209-41.5-285.9-116.7-77-75.4-120.6-176.2-122.7-284-1.1-55.2 8.6-108.9 29-159.8 19.6-49.1 48.2-93.4 85-131.7 36.8-38.3 79.9-68.6 128.2-90.2 50-22.3 103.3-34.2 158.5-35.3 2.8-0.1 5.5-0.1 8.3-0.1 107.5 0 209 41.5 285.9 116.7 77 75.4 120.6 176.2 122.7 284 1.1 55.2-8.6 108.9-29 159.8-19.6 49.1-48.2 93.4-85 131.7s-79.9 68.6-128.2 90.2c-50 22.3-103.3 34.2-158.5 35.3-2.7 0-5.5 0.1-8.3 0.1z m0.3-789.7c-2.6 0-5.2 0-7.7 0.1-210 4.2-377.4 178.4-373.2 388.4 4.1 205.8 174.8 373.3 380.6 373.3 2.6 0 5.2 0 7.7-0.1C729 891.2 896.4 717 892.2 507c-4-205.9-174.8-373.3-380.6-373.3z" fill="#263554" p-id="3260"></path><path d="M769.5 514.4c0-9.9-8.1-18-18-18h-480c-9.9 0-18 8.1-18 18s8.1 18 18 18h480c9.9 0 18-8.1 18-18z" fill="#263554" p-id="3261"></path></svg>