<?xml version="1.0" standalone="no"?><!DOCTYPE svg PUBLIC "-//W3C//DTD SVG 1.1//EN" "http://www.w3.org/Graphics/SVG/1.1/DTD/svg11.dtd"><svg t="1557371681162" class="icon" style="" viewBox="0 0 1024 1024" version="1.1" xmlns="http://www.w3.org/2000/svg" p-id="4165" xmlns:xlink="http://www.w3.org/1999/xlink" width="64" height="64"><defs><style type="text/css"></style></defs><path d="M273.408 742.4l179.2-29.696 478.208-482.304c17.408-17.408 29.696-47.104 29.696-72.704 0-55.296-47.104-102.4-102.4-102.4-29.696 0-55.296 13.312-72.704 29.696L307.2 563.2 273.408 742.4zM815.104 115.712c13.312-13.312 25.6-17.408 43.008-17.408 33.792 0 64.512 29.696 64.512 63.488 0 17.408-8.192 33.792-17.408 43.008l-25.6 25.6-90.112-90.112L815.104 115.712zM755.712 171.008l90.112 90.112L460.8 644.096l0-47.104 0-43.008-43.008 0-43.008 0L755.712 171.008zM340.992 596.992l76.8 0 0 76.8-94.208 17.408L340.992 596.992zM943.104 366.592c-12.288 0-21.504 8.192-21.504 21.504l0 456.704c0 47.104-38.912 84.992-84.992 84.992l-665.6 0c-47.104 0-84.992-38.912-84.992-84.992l0-665.6c0-47.104 38.912-84.992 84.992-84.992l456.704 0c13.312 0 21.504-8.192 21.504-21.504S640 51.2 626.688 51.2L171.008 51.2C102.4 51.2 47.104 106.496 47.104 175.104l0 665.6c0 68.608 55.296 123.904 123.904 123.904l665.6 0c68.608 0 123.904-55.296 123.904-123.904L960.512 388.096C960.512 375.808 951.296 366.592 943.104 366.592z" p-id="4166" fill="#ffffff"></path></svg>